{
  "title": "Marvel's Luke Cage S01E09 720p WEBRip x264-TheRival",
  "uid": 15922800,
  "size": 693532807,
  "categoryP": "video",
  "categoryS": "hd___tv_shows",
  "magnet": "?xt=urn:btih:662c675dec032a7cc2c4f3d7f430f523d968a075&amp;dn=Marvel%27s+Luke+Cage+S01E09+720p+WEBRip+x264-TheRival&amp;tr=udp%3A%2F%2Ftracker.leechers-paradise.org%3A6969&amp;tr=udp%3A%2F%2Fzer0day.ch%3A1337&amp;tr=udp%3A%2F%2Fopen.demonii.com%3A1337&amp;tr=udp%3A%2F%2Ftracker.coppersurfer.tk%3A6969&amp;tr=udp%3A%2F%2Fexodus.desync.com%3A6969",
  "seeders": 343,
  "leechers": 455,
  "uploader": "TheRival",
  "files": 2,
  "time": 1475265684,
  "description": "Video\r\nID : 1\r\nFormat : AVC\r\nFormat/Info : Advanced Video Codec\r\nFormat profile :   \r\nFormat settings, CABAC : Yes\r\nFormat settings, ReFrames : 4 frames\r\nCodec ID : avc1\r\nCodec ID/Info : Advanced Video Coding\r\nDuration : 1 h 3 min\r\nBit rate : 1 314 kb/s\r\nWidth : 1 280 pixels\r\nHeight : 720 pixels\r\nDisplay aspect ratio : 16:9\r\nFrame rate mode : Constant\r\nFrame rate : 23.976 (24000/1001) FPS\r\nColor space : YUV\r\nChroma subsampling : 4:2:0\r\nBit depth : 8 bits\r\nScan type : Progressive\r\nBits/(Pixel*Frame) : 0.059\r\nStream size : 600 MiB (91%)\r\nWriting library : x264 core 146\r\nEncoding settings : cabac=1 / ref=1 / deblock=1:0:0 / analyse=0x3:0x3 / me=dia / subme=1 / psy=1 / psy_rd=1.00:0.00 / mixed_ref=0 / me_range=16 / chroma_me=1 / trellis=0 / 8x8dct=1 / cqm=0 / deadzone=21,11 / fast_pskip=1 / chroma_qp_offset=0 / threads=6 / lookahead_threads=1 / sliced_threads=0 / nr=0 / decimate=1 / interlaced=0 / bluray_compat=0 / constrained_intra=0 / bframes=3 / b_pyramid=2 / b_adapt=1 / b_bias=0 / direct=1 / weightb=1 / open_gop=0 / weightp=1 / keyint=250 / keyint_min=23 / scenecut=40 / intra_refresh=0 / rc=crf / mbtree=0 / crf=23.0 / qcomp=0.60 / qpmin=0 / qpmax=69 / qpstep=4 / ip_ratio=1.40 / pb_ratio=1.30 / aq=1:1.00\r\n\r\nAudio\r\nID : 2\r\nFormat : AAC\r\nFormat/Info : Advanced Audio Codec\r\nFormat profile : LC\r\nCodec ID : 40\r\nDuration : 1 h 3 min\r\nBit rate mode : Constant\r\nBit rate : 128 kb/s\r\nChannel(s) : 2 channels\r\nChannel positions : Front: L R\r\nSampling rate : 48.0 kHz\r\nFrame rate : 46.875 FPS (1024 spf)\r\nCompression mode : Lossy\r\nStream size : 58.6 MiB (9%)\r\nDefault : Yes\r\nAlternate group : 1",
  "parsed": {
    "xt": "urn:btih:662c675dec032a7cc2c4f3d7f430f523d968a075",
    "dn": "Marvel's Luke Cage S01E09 720p WEBRip x264-TheRival",
    "tr": [
      "udp://exodus.desync.com:6969",
      "udp://open.demonii.com:1337",
      "udp://tracker.coppersurfer.tk:6969",
      "udp://tracker.leechers-paradise.org:6969",
      "udp://zer0day.ch:1337"
    ],
    "infoHash": "662c675dec032a7cc2c4f3d7f430f523d968a075",
    "infoHashBuffer": {
      "type": "Buffer",
      "data": [
        102,
        44,
        103,
        93,
        236,
        3,
        42,
        124,
        194,
        196,
        243,
        215,
        244,
        48,
        245,
        35,
        217,
        104,
        160,
        117
      ]
    },
    "name": "Marvel's Luke Cage S01E09 720p WEBRip x264-TheRival",
    "announce": [
      "udp://exodus.desync.com:6969",
      "udp://open.demonii.com:1337",
      "udp://tracker.coppersurfer.tk:6969",
      "udp://tracker.leechers-paradise.org:6969",
      "udp://zer0day.ch:1337"
    ],
    "urlList": []
  },
  "previous": 798,
  "peers": 94,
  "last_updated": "2016-12-25T03:15:59.479Z"
}